<svg xmlns="http://www.w3.org/2000/svg" xmlns:xlink="http://www.w3.org/1999/xlink" width="1000" zoomAndPan="magnify" viewBox="0 0 750 864.749991" height="1153" preserveAspectRatio="xMidYMid meet" version="1.0"><path fill="#161d2c" d="M 381.28125 33.960938 L 407.449219 33.960938 L 428.382812 38.148438 L 449.316406 45.472656 L 463.96875 53.847656 L 472.34375 60.128906 L 483.855469 67.457031 L 490.136719 72.691406 L 494.324219 74.785156 L 536.191406 76.878906 L 552.9375 80.019531 L 575.964844 89.441406 L 584.339844 95.722656 L 586.433594 99.910156 L 570.734375 102.003906 L 548.75 105.144531 L 518.398438 112.472656 L 501.652344 118.753906 L 483.855469 126.082031 L 478.625 128.175781 L 473.390625 133.40625 L 459.78125 144.921875 L 451.410156 152.25 L 451.410156 174.234375 L 454.550781 182.609375 L 462.921875 194.125 L 471.296875 204.59375 L 479.671875 219.25 L 492.230469 244.371094 L 504.789062 276.824219 L 515.257812 314.511719 L 521.539062 357.429688 L 523.632812 380.460938 L 523.632812 424.425781 L 520.492188 451.644531 L 515.257812 483.050781 L 503.742188 517.59375 L 491.183594 543.765625 L 476.53125 565.75 L 468.15625 576.21875 L 453.503906 591.921875 L 446.175781 599.25 L 428.382812 612.855469 L 411.636719 623.324219 L 392.792969 631.699219 L 396.980469 633.792969 L 416.867188 636.933594 L 430.476562 642.167969 L 444.082031 648.449219 L 458.734375 659.964844 L 461.875 664.152344 L 461.875 667.292969 L 458.734375 668.339844 L 327.898438 668.339844 L 315.339844 655.777344 L 312.199219 650.542969 L 279.75 649.496094 L 272.425781 648.449219 L 276.613281 645.308594 L 279.75 642.167969 L 273.472656 644.261719 L 258.816406 650.542969 L 243.117188 655.777344 L 237.882812 655.777344 L 241.023438 650.542969 L 248.351562 644.261719 L 254.628906 634.839844 L 258.816406 629.605469 L 260.910156 624.371094 L 245.210938 633.792969 L 228.464844 642.167969 L 211.714844 648.449219 L 187.640625 656.824219 L 170.894531 661.011719 L 165.660156 661.011719 L 170.894531 655.777344 L 177.175781 648.449219 L 182.410156 643.214844 L 191.828125 631.699219 L 196.015625 623.324219 L 204.390625 608.667969 L 212.761719 586.6875 L 216.949219 562.609375 L 219.042969 546.90625 L 219.042969 512.359375 L 213.808594 465.253906 L 207.53125 423.378906 L 206.484375 411.867188 L 206.484375 348.007812 L 211.714844 309.277344 L 217.996094 268.449219 L 227.417969 231.808594 L 233.695312 210.875 L 241.023438 187.84375 L 249.398438 165.859375 L 256.722656 149.109375 L 264.050781 131.316406 L 270.332031 120.847656 L 274.519531 111.425781 L 283.9375 96.769531 L 290.21875 88.394531 L 294.40625 83.160156 L 300.683594 75.832031 L 304.871094 71.644531 L 310.105469 65.363281 L 318.480469 59.082031 L 323.710938 54.894531 L 338.367188 46.519531 L 347.785156 42.332031 L 368.71875 36.054688 Z M 381.28125 33.960938 " fill-opacity="1" fill-rule="nonzero"/><path fill="#eddfd1" d="M 461.875 198.3125 L 467.109375 199.359375 L 473.390625 208.78125 L 482.808594 224.484375 L 486.996094 233.902344 L 494.324219 249.605469 L 504.789062 276.824219 L 515.257812 314.511719 L 521.539062 357.429688 L 523.632812 380.460938 L 523.632812 424.425781 L 520.492188 451.644531 L 515.257812 483.050781 L 503.742188 517.59375 L 491.183594 543.765625 L 476.53125 565.75 L 468.15625 576.21875 L 453.503906 591.921875 L 446.175781 599.25 L 428.382812 612.855469 L 411.636719 623.324219 L 392.792969 631.699219 L 396.980469 633.792969 L 416.867188 636.933594 L 430.476562 642.167969 L 444.082031 648.449219 L 458.734375 659.964844 L 461.875 664.152344 L 461.875 667.292969 L 458.734375 668.339844 L 327.898438 668.339844 L 315.339844 655.777344 L 312.199219 650.542969 L 279.75 649.496094 L 272.425781 648.449219 L 276.613281 645.308594 L 279.75 642.167969 L 278.703125 640.074219 L 294.40625 630.652344 L 305.917969 621.230469 L 313.246094 613.902344 L 318.480469 609.714844 L 325.804688 601.34375 L 332.085938 592.96875 L 335.226562 589.828125 L 337.320312 589.828125 L 339.414062 583.546875 L 348.832031 569.9375 L 356.160156 556.328125 L 361.394531 545.859375 L 366.628906 533.296875 L 371.859375 518.640625 L 378.140625 496.660156 L 382.328125 477.816406 L 385.46875 444.316406 L 389.65625 444.316406 L 394.886719 450.597656 L 398.027344 455.832031 L 405.355469 465.253906 L 414.773438 483.050781 L 417.914062 495.613281 L 421.054688 511.3125 L 421.054688 533.296875 L 418.960938 540.625 L 418.960938 546.90625 L 427.335938 545.859375 L 437.800781 539.578125 L 443.035156 534.34375 L 448.269531 530.15625 L 458.734375 514.453125 L 467.109375 493.519531 L 471.296875 475.722656 L 471.296875 436.988281 L 467.109375 417.097656 L 458.734375 389.882812 L 450.363281 374.179688 L 446.175781 364.757812 L 439.894531 355.335938 L 435.707031 346.960938 L 430.476562 340.679688 L 423.148438 326.023438 L 418.960938 320.789062 L 413.726562 307.183594 L 409.542969 297.761719 L 408.496094 292.527344 L 408.496094 253.792969 L 412.683594 235.996094 L 417.914062 222.390625 L 427.335938 211.921875 L 443.035156 203.546875 L 452.457031 200.40625 Z M 461.875 198.3125 " fill-opacity="1" fill-rule="nonzero"/><path fill="#212b3c" d="M 388.609375 200.40625 L 393.839844 200.40625 L 395.933594 202.5 L 395.933594 212.96875 L 392.792969 232.855469 L 392.792969 244.371094 L 395.933594 266.355469 L 401.167969 279.964844 L 404.308594 289.386719 L 406.402344 288.339844 L 407.449219 255.886719 L 408.496094 255.886719 L 409.542969 292.527344 L 412.683594 302.996094 L 417.914062 314.511719 L 422.101562 323.929688 L 428.382812 333.351562 L 433.617188 343.820312 L 437.800781 348.007812 L 445.128906 362.664062 L 449.316406 367.898438 L 454.550781 380.460938 L 460.828125 391.976562 L 470.25 425.472656 L 472.34375 436.988281 L 472.34375 475.722656 L 468.15625 493.519531 L 459.78125 514.453125 L 448.269531 531.203125 L 439.894531 537.484375 L 434.664062 542.71875 L 424.195312 547.953125 L 418.960938 547.953125 L 417.914062 546.90625 L 418.960938 537.484375 L 420.007812 533.296875 L 420.007812 511.3125 L 414.773438 486.191406 L 406.402344 469.441406 L 399.074219 457.925781 L 394.886719 453.738281 L 391.746094 447.457031 L 388.609375 444.316406 L 386.515625 444.316406 L 383.375 477.816406 L 379.1875 496.660156 L 372.90625 518.640625 L 367.675781 533.296875 L 362.441406 545.859375 L 356.160156 558.421875 L 346.738281 575.171875 L 340.460938 583.546875 L 337.320312 589.828125 L 329.992188 596.109375 L 325.804688 602.390625 L 315.339844 613.902344 L 306.964844 621.230469 L 299.640625 627.511719 L 291.265625 633.792969 L 271.378906 645.308594 L 257.769531 650.542969 L 259.863281 646.355469 L 271.378906 640.074219 L 281.84375 632.746094 L 291.265625 626.464844 L 304.871094 615.996094 L 314.292969 607.621094 L 319.527344 601.34375 L 324.757812 596.109375 L 332.085938 587.734375 L 334.179688 587.734375 L 336.273438 581.453125 L 344.648438 569.9375 L 350.925781 557.375 L 357.207031 546.90625 L 362.441406 534.34375 L 367.675781 523.875 L 371.859375 507.128906 L 377.09375 488.285156 L 379.1875 475.722656 L 382.328125 443.269531 L 384.421875 438.035156 L 379.1875 432.800781 L 370.8125 426.519531 L 366.628906 422.332031 L 357.207031 415.007812 L 357.207031 412.914062 L 351.972656 410.820312 L 344.648438 403.492188 L 336.273438 396.164062 L 326.851562 384.648438 L 320.574219 375.226562 L 315.339844 358.476562 L 312.199219 338.585938 L 314.292969 312.417969 L 318.480469 290.433594 L 322.664062 278.917969 L 331.039062 262.167969 L 338.367188 251.699219 L 344.648438 240.183594 L 346.738281 240.183594 L 348.832031 235.996094 L 356.160156 226.578125 L 372.90625 209.828125 L 380.234375 204.59375 Z M 388.609375 200.40625 " fill-opacity="1" fill-rule="nonzero"/><path fill="#054ba9" d="M 379.1875 678.808594 L 395.933594 679.855469 L 406.402344 682.996094 L 421.054688 691.371094 L 431.523438 700.789062 L 438.847656 710.210938 L 446.175781 728.007812 L 448.269531 736.382812 L 448.269531 754.179688 L 444.082031 767.789062 L 436.753906 782.445312 L 424.195312 796.050781 L 413.726562 803.378906 L 396.980469 809.660156 L 388.609375 811.753906 L 373.953125 811.753906 L 360.347656 807.566406 L 343.601562 799.191406 L 335.226562 791.867188 L 329.992188 786.632812 L 321.621094 773.023438 L 317.433594 763.601562 L 316.386719 758.367188 L 316.386719 732.195312 L 318.480469 722.773438 L 326.851562 708.117188 L 336.273438 697.652344 L 345.691406 689.277344 L 362.441406 680.902344 Z M 375 711.257812 L 364.535156 714.398438 L 358.253906 719.632812 L 351.972656 726.960938 L 348.832031 737.429688 L 348.832031 754.179688 L 353.019531 764.648438 L 362.441406 774.070312 L 371.859375 779.304688 L 378.140625 780.351562 L 386.515625 780.351562 L 395.933594 777.210938 L 406.402344 769.882812 L 413.726562 759.414062 L 415.820312 754.179688 L 415.820312 735.335938 L 410.589844 725.914062 L 401.167969 715.445312 L 393.839844 712.304688 L 387.5625 711.257812 Z M 375 711.257812 " fill-opacity="1" fill-rule="nonzero"/><path fill="#054aa9" d="M 207.53125 678.808594 L 261.957031 678.808594 L 274.519531 681.949219 L 283.9375 688.230469 L 293.359375 695.558594 L 302.777344 712.304688 L 304.871094 718.585938 L 304.871094 735.335938 L 301.730469 743.710938 L 294.40625 756.273438 L 287.078125 763.601562 L 284.984375 763.601562 L 286.03125 766.742188 L 292.3125 771.976562 L 297.546875 780.351562 L 303.824219 787.679688 L 305.917969 792.910156 L 305.917969 799.191406 L 301.730469 805.472656 L 292.3125 811.753906 L 286.03125 811.753906 L 277.65625 804.425781 L 271.378906 797.097656 L 268.238281 791.867188 L 260.910156 781.398438 L 257.769531 776.164062 L 236.835938 776.164062 L 235.789062 800.238281 L 233.695312 803.378906 L 231.601562 803.378906 L 229.511719 807.566406 L 223.230469 811.753906 L 213.808594 810.707031 L 206.484375 805.472656 L 204.390625 801.285156 L 203.34375 712.304688 L 202.296875 684.042969 L 204.390625 679.855469 Z M 234.742188 706.023438 L 234.742188 746.851562 L 235.789062 747.898438 L 256.722656 747.898438 L 266.144531 744.757812 L 271.378906 738.476562 L 272.425781 735.335938 L 272.425781 719.632812 L 269.285156 713.351562 L 259.863281 707.070312 L 256.722656 706.023438 Z M 234.742188 706.023438 " fill-opacity="1" fill-rule="nonzero"/><path fill="#054ba9" d="M 503.742188 678.808594 L 519.445312 679.855469 L 530.957031 684.042969 L 542.472656 692.417969 L 548.753906 699.742188 L 550.84375 706.023438 L 549.796875 713.351562 L 543.519531 718.585938 L 538.285156 720.679688 L 528.863281 719.632812 L 517.351562 713.351562 L 510.023438 708.117188 L 502.699219 707.070312 L 496.417969 710.210938 L 494.324219 713.351562 L 495.371094 718.585938 L 499.558594 722.773438 L 521.539062 734.289062 L 534.097656 740.570312 L 546.660156 751.039062 L 550.84375 757.320312 L 552.9375 764.648438 L 552.9375 779.304688 L 549.796875 789.773438 L 544.566406 795.003906 L 539.332031 801.285156 L 520.492188 809.660156 L 513.164062 811.753906 L 495.371094 811.753906 L 481.761719 807.566406 L 470.25 801.285156 L 465.015625 797.097656 L 460.828125 789.773438 L 459.78125 785.585938 L 459.78125 775.117188 L 462.921875 769.882812 L 471.296875 766.742188 L 480.71875 768.835938 L 489.089844 775.117188 L 496.417969 779.304688 L 508.976562 780.351562 L 518.398438 777.210938 L 518.398438 769.882812 L 513.164062 764.648438 L 483.855469 749.992188 L 474.4375 743.710938 L 465.015625 732.195312 L 461.875 723.820312 L 461.875 710.210938 L 463.96875 702.882812 L 470.25 693.464844 L 478.625 686.136719 L 488.042969 680.902344 Z M 503.742188 678.808594 " fill-opacity="1" fill-rule="nonzero"/><path fill="#044aa9" d="M 117.515625 678.808594 L 176.128906 679.855469 L 181.363281 682.996094 L 184.503906 689.277344 L 184.503906 698.695312 L 180.316406 704.976562 L 177.175781 708.117188 L 174.035156 709.164062 L 120.652344 709.164062 L 120.652344 733.242188 L 158.335938 733.242188 L 166.707031 736.382812 L 170.894531 742.664062 L 170.894531 753.132812 L 165.660156 759.414062 L 158.335938 763.601562 L 120.652344 763.601562 L 120.652344 797.097656 L 117.515625 804.425781 L 113.328125 809.660156 L 107.046875 811.753906 L 98.671875 810.707031 L 92.394531 805.472656 L 89.253906 799.191406 L 88.207031 692.417969 L 87.160156 682.996094 L 90.300781 679.855469 Z M 117.515625 678.808594 " fill-opacity="1" fill-rule="nonzero"/><path fill="#054aa9" d="M 592.714844 678.808594 L 655.515625 678.808594 L 669.121094 680.902344 L 673.308594 685.089844 L 675.402344 691.371094 L 675.402344 698.695312 L 672.261719 704.976562 L 665.980469 710.210938 L 662.839844 711.257812 L 635.628906 711.257812 L 635.628906 770.929688 L 634.582031 800.238281 L 628.300781 808.613281 L 622.019531 811.753906 L 613.648438 810.707031 L 608.414062 807.566406 L 605.273438 802.332031 L 604.226562 798.144531 L 603.179688 712.304688 L 574.917969 711.257812 L 565.5 704.976562 L 562.359375 699.742188 L 562.359375 691.371094 L 564.453125 686.136719 L 569.6875 680.902344 L 572.824219 679.855469 Z M 592.714844 678.808594 " fill-opacity="1" fill-rule="nonzero"/><path fill="#fcfbfa" d="M 411.636719 77.925781 L 425.242188 77.925781 L 436.753906 82.113281 L 447.222656 88.394531 L 451.410156 93.628906 L 453.503906 99.910156 L 452.457031 109.332031 L 461.875 110.378906 L 471.296875 114.566406 L 481.761719 123.988281 L 483.855469 126.082031 L 478.625 128.175781 L 473.390625 133.40625 L 459.78125 144.921875 L 451.410156 152.25 L 450.363281 154.34375 L 440.941406 151.203125 L 425.242188 142.828125 L 418.960938 139.6875 L 406.402344 130.269531 L 394.886719 118.753906 L 385.46875 99.910156 L 385.46875 90.488281 L 402.214844 81.066406 Z M 411.636719 77.925781 " fill-opacity="1" fill-rule="nonzero"/><path fill="#f28f36" d="M 354.066406 107.238281 L 364.535156 107.238281 L 371.859375 110.378906 L 383.375 123.988281 L 387.5625 130.269531 L 393.839844 137.59375 L 401.167969 145.96875 L 412.679688 158.53125 L 415.820312 161.671875 L 414.773438 166.90625 L 404.308594 174.234375 L 400.121094 176.328125 L 391.746094 177.375 L 382.328125 177.375 L 368.71875 175.28125 L 354.066406 170.046875 L 338.367188 163.765625 L 328.945312 157.484375 L 328.945312 155.390625 L 326.851562 155.390625 L 323.710938 149.109375 L 324.757812 139.6875 L 328.945312 127.128906 L 333.132812 120.847656 L 338.367188 115.613281 L 343.601562 111.425781 Z M 354.066406 107.238281 " fill-opacity="1" fill-rule="nonzero"/><path fill="#161d2c" d="M 385.46875 633.792969 L 396.980469 633.792969 L 416.867188 636.933594 L 430.476562 642.167969 L 444.082031 648.449219 L 458.734375 659.964844 L 461.875 664.152344 L 461.875 667.292969 L 458.734375 668.339844 L 327.898438 668.339844 L 315.339844 655.777344 L 313.246094 650.542969 L 320.574219 648.449219 L 358.253906 643.214844 L 381.28125 634.839844 Z M 385.46875 633.792969 " fill-opacity="1" fill-rule="nonzero"/><path fill="#f28f36" d="M 461.875 198.3125 L 467.109375 199.359375 L 473.390625 208.78125 L 482.808594 224.484375 L 482.808594 228.667969 L 473.390625 231.808594 L 452.457031 240.183594 L 449.316406 243.324219 L 438.847656 248.558594 L 429.429688 257.980469 L 420.007812 270.542969 L 413.726562 285.199219 L 410.589844 297.761719 L 409.542969 297.761719 L 408.496094 292.527344 L 408.496094 253.792969 L 412.683594 235.996094 L 417.914062 222.390625 L 427.335938 211.921875 L 443.035156 203.546875 L 452.457031 200.40625 Z M 461.875 198.3125 " fill-opacity="1" fill-rule="nonzero"/><path fill="#1e2e47" d="M 408.496094 73.738281 L 425.242188 73.738281 L 434.664062 76.878906 L 443.035156 81.066406 L 443.035156 83.160156 L 447.222656 84.207031 L 453.503906 89.441406 L 457.691406 104.097656 L 459.78125 106.191406 L 469.203125 108.285156 L 481.761719 117.707031 L 482.808594 119.800781 L 490.136719 120.847656 L 496.417969 119.800781 L 493.277344 121.894531 L 485.949219 125.035156 L 480.71875 123.988281 L 470.25 114.566406 L 457.691406 110.378906 L 452.457031 109.332031 L 452.457031 99.910156 L 448.269531 90.488281 L 438.847656 84.207031 L 429.429688 80.019531 L 425.242188 78.972656 L 411.636719 78.972656 L 400.121094 83.160156 L 386.515625 90.488281 L 386.515625 99.910156 L 392.792969 112.472656 L 398.027344 120.847656 L 408.496094 131.316406 L 422.101562 140.734375 L 438.847656 149.109375 L 451.410156 154.34375 L 450.363281 171.09375 L 449.316406 171.09375 L 448.269531 156.4375 L 441.988281 156.4375 L 425.242188 147.015625 L 416.867188 142.828125 L 409.542969 136.546875 L 403.261719 132.363281 L 398.027344 127.128906 L 392.792969 120.847656 L 388.609375 111.425781 L 385.46875 106.191406 L 383.375 102.003906 L 383.375 89.441406 L 387.5625 85.253906 L 405.355469 74.785156 Z M 408.496094 73.738281 " fill-opacity="1" fill-rule="nonzero"/><path fill="#1c3253" d="M 385.46875 633.792969 L 396.980469 633.792969 L 411.636719 635.886719 L 411.636719 636.933594 L 402.214844 639.027344 L 395.933594 637.980469 L 377.09375 640.074219 L 367.675781 644.261719 L 351.972656 649.496094 L 329.992188 652.636719 L 327.898438 653.683594 L 326.851562 658.917969 L 327.898438 659.964844 L 327.898438 665.199219 L 454.550781 665.199219 L 460.828125 662.058594 L 461.875 667.292969 L 458.734375 668.339844 L 327.898438 668.339844 L 315.339844 655.777344 L 313.246094 650.542969 L 320.574219 648.449219 L 358.253906 643.214844 L 381.28125 634.839844 Z M 385.46875 633.792969 " fill-opacity="1" fill-rule="nonzero"/><path fill="#1c304e" d="M 365.582031 523.875 L 367.671875 523.875 L 364.535156 533.296875 L 359.300781 545.859375 L 353.019531 558.421875 L 343.601562 575.171875 L 337.320312 583.546875 L 334.179688 589.828125 L 326.851562 596.109375 L 322.664062 602.390625 L 312.199219 613.902344 L 303.824219 621.230469 L 296.5 627.511719 L 288.125 633.792969 L 268.238281 645.308594 L 254.628906 650.542969 L 256.722656 646.355469 L 268.238281 640.074219 L 278.703125 632.746094 L 288.125 626.464844 L 301.730469 615.996094 L 311.152344 607.621094 L 316.386719 601.34375 L 321.621094 596.109375 L 328.945312 587.734375 L 331.039062 587.734375 L 333.132812 581.453125 L 341.507812 569.9375 L 347.785156 557.375 L 354.066406 546.90625 L 359.300781 534.34375 L 364.535156 524.921875 Z M 365.582031 523.875 " fill-opacity="1" fill-rule="nonzero"/><path fill="#f28f36" d="M 505.835938 89.441406 L 541.425781 89.441406 L 557.125 93.628906 L 558.171875 95.722656 L 551.890625 96.769531 L 511.070312 98.863281 L 489.089844 102.003906 L 480.71875 103.050781 L 469.203125 103.050781 L 469.203125 98.863281 L 483.855469 93.628906 Z M 505.835938 89.441406 " fill-opacity="1" fill-rule="nonzero"/><path fill="#161d2c" d="M 454.550781 505.035156 L 458.734375 507.128906 L 453.503906 517.59375 L 445.128906 529.109375 L 438.847656 534.34375 L 436.753906 534.34375 L 435.707031 537.484375 L 429.429688 542.71875 L 422.101562 543.765625 L 423.148438 534.34375 L 425.242188 522.828125 L 430.476562 523.875 L 434.664062 525.96875 L 439.894531 522.828125 L 443.035156 518.640625 L 445.128906 518.640625 L 446.175781 514.453125 L 449.316406 508.175781 Z M 454.550781 505.035156 " fill-opacity="1" fill-rule="nonzero"/><path fill="#1e2f49" d="M 415.820312 87.347656 L 427.335938 87.347656 L 432.570312 91.535156 L 433.617188 96.769531 L 429.429688 105.144531 L 425.242188 108.285156 L 416.867188 107.238281 L 411.636719 102.003906 L 411.636719 91.535156 Z M 415.820312 87.347656 " fill-opacity="1" fill-rule="nonzero"/><path fill="#1e314e" d="M 384.421875 91.535156 L 385.46875 91.535156 L 387.5625 102.003906 L 392.792969 112.472656 L 398.027344 120.847656 L 408.496094 131.316406 L 422.101562 140.734375 L 438.847656 149.109375 L 451.410156 154.34375 L 450.363281 171.09375 L 449.316406 171.09375 L 448.269531 156.4375 L 441.988281 156.4375 L 425.242188 147.015625 L 416.867188 142.828125 L 409.542969 136.546875 L 403.261719 132.363281 L 398.027344 127.128906 L 392.792969 120.847656 L 388.609375 111.425781 L 385.46875 106.191406 L 383.375 102.003906 Z M 384.421875 91.535156 " fill-opacity="1" fill-rule="nonzero"/><path fill="#222b3b" d="M 496.417969 89.441406 L 505.835938 89.441406 L 505.835938 90.488281 L 479.671875 95.722656 L 469.203125 99.910156 L 469.203125 102.003906 L 480.714844 102.003906 L 500.605469 98.863281 L 526.769531 96.769531 L 551.890625 95.722656 L 557.125 94.675781 L 553.984375 92.582031 L 560.265625 93.628906 L 561.3125 97.816406 L 515.257812 99.910156 L 491.183594 103.050781 L 476.53125 105.144531 L 467.109375 104.097656 L 465.015625 103.050781 L 467.109375 98.863281 L 475.484375 94.675781 Z M 496.417969 89.441406 " fill-opacity="1" fill-rule="nonzero"/><path fill="#18345d" d="M 459.78125 662.058594 L 461.875 664.152344 L 461.875 667.292969 L 458.734375 668.339844 L 370.8125 668.339844 L 331.039062 667.292969 L 331.039062 666.246094 L 454.550781 665.199219 Z M 459.78125 662.058594 " fill-opacity="1" fill-rule="nonzero"/><path fill="#eddfd2" d="M 394.886719 115.613281 L 402.214844 121.894531 L 407.449219 128.175781 L 422.101562 137.59375 L 439.894531 147.015625 L 450.363281 152.25 L 450.363281 154.34375 L 440.941406 151.203125 L 425.242188 142.828125 L 418.960938 139.6875 L 406.402344 130.269531 L 394.886719 118.753906 Z M 394.886719 115.613281 " fill-opacity="1" fill-rule="nonzero"/><path fill="#202c3e" d="M 428.382812 642.167969 L 437.800781 645.308594 L 446.175781 649.496094 L 455.597656 657.871094 L 451.410156 658.917969 L 441.988281 655.777344 L 433.617188 648.449219 L 428.382812 643.214844 Z M 428.382812 642.167969 " fill-opacity="1" fill-rule="nonzero"/><path fill="#eddfd1" d="M 417.914062 85.253906 L 425.242188 85.253906 L 432.570312 88.394531 L 435.707031 95.722656 L 433.617188 102.003906 L 430.476562 106.191406 L 428.382812 105.144531 L 432.570312 96.769531 L 430.476562 90.488281 L 427.335938 88.394531 L 415.820312 88.394531 L 412.679688 91.535156 L 411.636719 102.003906 L 409.542969 99.910156 L 409.542969 92.582031 L 412.679688 87.347656 Z M 417.914062 85.253906 " fill-opacity="1" fill-rule="nonzero"/><path fill="#161d2c" d="M 427.335938 92.582031 L 430.476562 93.628906 L 431.523438 96.769531 L 426.289062 104.097656 L 418.960938 104.097656 L 415.820312 100.957031 L 415.820312 97.816406 L 425.242188 96.769531 Z M 427.335938 92.582031 " fill-opacity="1" fill-rule="nonzero"/><path fill="#161d2c" d="M 438.847656 359.523438 L 441.988281 360.570312 L 449.316406 372.085938 L 448.269531 376.273438 L 446.175781 376.273438 L 441.988281 371.039062 L 441.988281 367.898438 L 439.894531 366.851562 Z M 438.847656 359.523438 " fill-opacity="1" fill-rule="nonzero"/><path fill="#eee2d5" d="M 454.550781 110.378906 L 461.875 110.378906 L 471.296875 114.566406 L 481.761719 123.988281 L 483.855469 126.082031 L 479.671875 125.035156 L 476.53125 122.941406 L 476.53125 120.847656 L 472.34375 118.753906 L 466.0625 114.566406 L 454.550781 111.425781 Z M 454.550781 110.378906 " fill-opacity="1" fill-rule="nonzero"/><path fill="#f2eae1" d="M 394.886719 115.613281 L 402.214844 121.894531 L 407.449219 128.175781 L 414.773438 133.40625 L 413.726562 135.5 L 405.355469 129.222656 L 394.886719 118.753906 Z M 394.886719 115.613281 " fill-opacity="1" fill-rule="nonzero"/><path fill="#efe3d6" d="M 420.007812 89.441406 L 424.195312 90.488281 L 423.148438 95.722656 L 418.960938 95.722656 L 417.914062 91.535156 Z M 420.007812 89.441406 " fill-opacity="1" fill-rule="nonzero"/></svg>