<?xml version="1.0" encoding="UTF-8"?>
<svg version="1.1" viewBox="0 0 2048 1153" width="666" height="375" xmlns="http://www.w3.org/2000/svg">
<path transform="translate(1015,273)" d="m0 0h25l20 4 20 7 14 8 8 6 11 7 6 5 4 2 40 2 16 3 22 9 8 6 2 4-15 2-21 3-29 7-16 6-17 7-5 2-5 5-13 11-8 7v21l3 8 8 11 8 10 8 14 12 24 12 31 10 36 6 41 2 22v42l-3 26-5 30-11 33-12 25-14 21-8 10-14 15-7 7-17 13-16 10-18 8 4 2 19 3 13 5 13 6 14 11 3 4v3l-3 1h-125l-12-12-3-5-31-1-7-1 4-3 3-3-6 2-14 6-15 5h-5l3-5 7-6 6-9 4-5 2-5-15 9-16 8-16 6-23 8-16 4h-5l5-5 6-7 5-5 9-11 4-8 8-14 8-21 4-23 2-15v-33l-5-45-6-40-1-11v-61l5-37 6-39 9-35 6-20 7-22 8-21 7-16 7-17 6-10 4-9 9-14 6-8 4-5 6-7 4-4 5-6 8-6 5-4 14-8 9-4 20-6z" fill="#161D2C"/>
<path transform="translate(1092,430)" d="m0 0 5 1 6 9 9 15 4 9 7 15 10 26 10 36 6 41 2 22v42l-3 26-5 30-11 33-12 25-14 21-8 10-14 15-7 7-17 13-16 10-18 8 4 2 19 3 13 5 13 6 14 11 3 4v3l-3 1h-125l-12-12-3-5-31-1-7-1 4-3 3-3-1-2 15-9 11-9 7-7 5-4 7-8 6-8 3-3h2l2-6 9-13 7-13 5-10 5-12 5-14 6-21 4-18 3-32h4l5 6 3 5 7 9 9 17 3 12 3 15v21l-2 7v6l8-1 10-6 5-5 5-4 10-15 8-20 4-17v-37l-4-19-8-26-8-15-4-9-6-9-4-8-5-6-7-14-4-5-5-13-4-9-1-5v-37l4-17 5-13 9-10 15-8 9-3z" fill="#EDDFD1"/>
<path transform="translate(1022,432)" d="m0 0h5l2 2v10l-3 19v11l3 21 5 13 3 9 2-1 1-31h1l1 35 3 10 5 11 4 9 6 9 5 10 4 4 7 14 4 5 5 12 6 11 9 32 2 11v37l-4 17-8 20-11 16-8 6-5 5-10 5h-5l-1-1 1-9 1-4v-21l-5-24-8-16-7-11-4-4-3-6-3-3h-2l-3 32-4 18-6 21-5 14-5 12-6 12-9 16-6 8-3 6-7 6-4 6-10 11-8 7-7 6-8 6-19 11-13 5 2-4 11-6 10-7 9-6 13-10 9-8 5-6 5-5 7-8h2l2-6 8-11 6-12 6-10 5-12 5-10 4-16 5-18 2-12 3-31 2-5-5-5-8-6-4-4-9-7v-2l-5-2-7-7-8-7-9-11-6-9-5-16-3-19 2-25 4-21 4-11 8-16 7-10 6-11h2l2-4 7-9 16-16 7-5z" fill="#212B3C"/>
<path transform="translate(1013,889)" d="m0 0 16 1 10 3 14 8 10 9 7 9 7 17 2 8v17l-4 13-7 14-12 13-10 7-16 6-8 2h-14l-13-4-16-8-8-7-5-5-8-13-4-9-1-5v-25l2-9 8-14 9-10 9-8 16-8zm-4 31-10 3-6 5-6 7-3 10v16l4 10 9 9 9 5 6 1h8l9-3 10-7 7-10 2-5v-18l-5-9-9-10-7-3-6-1z" fill="#054BA9"/>
<path transform="translate(849,889)" d="m0 0h52l12 3 9 6 9 7 9 16 2 6v16l-3 8-7 12-7 7h-2l1 3 6 5 5 8 6 7 2 5v6l-4 6-9 6h-6l-8-7-6-7-3-5-7-10-3-5h-20l-1 23-2 3h-2l-2 4-6 4-9-1-7-5-2-4-1-85-1-27 2-4zm26 26v39l1 1h20l9-3 5-6 1-3v-15l-3-6-9-6-3-1z" fill="#054AA9"/>
<path transform="translate(1132,889)" d="m0 0 15 1 11 4 11 8 6 7 2 6-1 7-6 5-5 2-9-1-11-6-7-5-7-1-6 3-2 3 1 5 4 4 21 11 12 6 12 10 4 6 2 7v14l-3 10-5 5-5 6-18 8-7 2h-17l-13-4-11-6-5-4-4-7-1-4v-10l3-5 8-3 9 2 8 6 7 4 12 1 9-3v-7l-5-5-28-14-9-6-9-11-3-8v-13l2-7 6-9 8-7 9-5z" fill="#054BA9"/>
<path transform="translate(763,889)" d="m0 0 56 1 5 3 3 6v9l-4 6-3 3-3 1h-51v23h36l8 3 4 6v10l-5 6-7 4h-36v32l-3 7-4 5-6 2-8-1-6-5-3-6-1-102-1-9 3-3z" fill="#044AA9"/>
<path transform="translate(1217,889)" d="m0 0h60l13 2 4 4 2 6v7l-3 6-6 5-3 1h-26v57l-1 28-6 8-6 3-8-1-5-3-3-5-1-4-1-82-27-1-9-6-3-5v-8l2-5 5-5 3-1z" fill="#054AA9"/>
<path transform="translate(1044,315)" d="m0 0h13l11 4 10 6 4 5 2 6-1 9 9 1 9 4 10 9 2 2-5 2-5 5-13 11-8 7-1 2-9-3-15-8-6-3-12-9-11-11-9-18v-9l16-9z" fill="#FCFBFA"/>
<path transform="translate(989,343)" d="m0 0h10l7 3 11 13 4 6 6 7 7 8 11 12 3 3-1 5-10 7-4 2-8 1h-9l-13-2-14-5-15-6-9-6v-2h-2l-3-6 1-9 4-12 4-6 5-5 5-4z" fill="#F28F36"/>
<path transform="translate(1019,846)" d="m0 0h11l19 3 13 5 13 6 14 11 3 4v3l-3 1h-125l-12-12-2-5 7-2 36-5 22-8z" fill="#161D2C"/>
<path transform="translate(1092,430)" d="m0 0 5 1 6 9 9 15v4l-9 3-20 8-3 3-10 5-9 9-9 12-6 14-3 12h-1l-1-5v-37l4-17 5-13 9-10 15-8 9-3z" fill="#F28F36"/>
<path transform="translate(1041,311)" d="m0 0h16l9 3 8 4v2l4 1 6 5 4 14 2 2 9 2 12 9 1 2 7 1 6-1-3 2-7 3-5-1-10-9-12-4-5-1v-9l-4-9-9-6-9-4-4-1h-13l-11 4-13 7v9l6 12 5 8 10 10 13 9 16 8 12 5-1 16h-1l-1-14h-6l-16-9-8-4-7-6-6-4-5-5-5-6-4-9-3-5-2-4v-12l4-4 17-10z" fill="#1E2E47"/>
<path transform="translate(1019,846)" d="m0 0h11l14 2v1l-9 2-6-1-18 2-9 4-15 5-21 3-2 1-1 5 1 1v5h121l6-3 1 5-3 1h-125l-12-12-2-5 7-2 36-5 22-8z" fill="#1C3253"/>
<path transform="translate(1e3 741)" d="m0 0h2l-3 9-5 12-6 12-9 16-6 8-3 6-7 6-4 6-10 11-8 7-7 6-8 6-19 11-13 5 2-4 11-6 10-7 9-6 13-10 9-8 5-6 5-5 7-8h2l2-6 8-11 6-12 6-10 5-12 5-9z" fill="#1C304E"/>
<path transform="translate(1134,326)" d="m0 0h34l15 4 1 2-6 1-39 2-21 3-8 1h-11v-4l14-5z" fill="#F28F36"/>
<path transform="translate(1085,723)" d="m0 0 4 2-5 10-8 11-6 5h-2l-1 3-6 5-7 1 1-9 2-11 5 1 4 2 5-3 3-4h2l1-4 3-6z" fill="#161D2C"/>
<path transform="translate(1048,324)" d="m0 0h11l5 4 1 5-4 8-4 3-8-1-5-5v-10z" fill="#1E2F49"/>
<path transform="translate(1018,328)" d="m0 0h1l2 10 5 10 5 8 10 10 13 9 16 8 12 5-1 16h-1l-1-14h-6l-16-9-8-4-7-6-6-4-5-5-5-6-4-9-3-5-2-4z" fill="#1E314E"/>
<path transform="translate(1125,326)" d="m0 0h9v1l-25 5-10 4v2h11l19-3 25-2 24-1 5-1-3-2 6 1 1 4-44 2-23 3-14 2-9-1-2-1 2-4 8-4z" fill="#222B3B"/>
<path transform="translate(1090,873)" d="m0 0 2 2v3l-3 1h-84l-38-1v-1l118-1z" fill="#18345D"/>
<path transform="translate(1028,351)" d="m0 0 7 6 5 6 14 9 17 9 10 5v2l-9-3-15-8-6-3-12-9-11-11z" fill="#EDDFD2"/>
<path transform="translate(1060,854)" d="m0 0 9 3 8 4 9 8-4 1-9-3-8-7-5-5z" fill="#202C3E"/>
<path transform="translate(1050,322)" d="m0 0h7l7 3 3 7-2 6-3 4-2-1 4-8-2-6-3-2h-11l-3 3-1 10-2-2v-7l3-5z" fill="#EDDFD1"/>
<path transform="translate(1059,329)" d="m0 0 3 1 1 3-5 7h-7l-3-3v-3l9-1z" fill="#161D2C"/>
<path transform="translate(1070,584)" d="m0 0 3 1 7 11-1 4h-2l-4-5v-3l-2-1z" fill="#161D2C"/>
<path transform="translate(1085,346)" d="m0 0h7l9 4 10 9 2 2-4-1-3-2v-2l-4-2-6-4-11-3z" fill="#EEE2D5"/>
<path transform="translate(1028,351)" d="m0 0 7 6 5 6 7 5-1 2-8-6-10-10z" fill="#F2EAE1"/>
<path transform="translate(1052,326)" d="m0 0 4 1-1 5h-4l-1-4z" fill="#EFE3D6"/>
</svg>
